# xmcd
#
# Track frame offsets: 
#        150
#        14965
#        24966
#        43900
#        60345
#        96401
#        122461
#        161153
#        173909
#        215624
#        235346
#        245763
#
# Disc length: 3742 seconds
#
# Revision: 0
# Processed by: cddbd v1.5.2PL0 Copyright (c) Steve Scherf et al.
# Submitted via: ExactAudioCopyFreeDBPlugin 1.0
#
DISCID=a90e9c0c
DTITLE=Roy Buchanan - Live at Town Hall 1974 CD 1 Early set
DYEAR=2018
DGENRE=Blues Rock
TTITLE0=Done Your Daddy Dirty
TTITLE1=Reelin' And Rockin'
TTITLE2=Hot Cha
TTITLE3=Further On Up The Road
TTITLE4=Roy's Bluz
TTITLE5=Can I Change My Mind
TTITLE6=Hey Joe
TTITLE7=Too Many Drivers
TTITLE8=Down By The River
TTITLE9=I'm A Ram
TTITLE10=In The Beginning
TTITLE11=Driftin and Driftin
EXTD=
EXTT0=
EXTT1=
EXTT2=
EXTT3=
EXTT4=
EXTT5=
EXTT6=
EXTT7=
EXTT8=
EXTT9=
EXTT10=
EXTT11=
PLAYORDER=
